<?xml version="1.0" encoding="UTF-8"?><svg id="Calque_2" xmlns="http://www.w3.org/2000/svg" viewBox="0 0 334.6 204.4"><defs><style>.cls-1{fill:none;stroke:#cc3047;stroke-linecap:round;stroke-linejoin:round;stroke-width:3px;}.cls-2{fill:#cc3047;}</style></defs><g id="_01_Les_lots"><path d="M167.31,192.76c-58.8,0-160.32,10.03-161.35,10.14H328.64c-1.02-.1-102.53-10.14-161.33-10.14Z"/><path d="M5.96,1.5c1.02,.1,102.55,10.14,161.35,10.14S327.62,1.6,328.64,1.5H5.96Z"/><path class="cls-1" d="M5.96,125.66v77.24c1.02-.1,102.55-10.14,161.35-10.14s160.31,10.03,161.33,10.14V125.66"/><polygon class="cls-2" points="0 102.25 6.25 110.59 10.88 101.79 5.32 93.11 0 102.25"/><polygon class="cls-2" points="323.72 102.25 329.97 110.59 334.6 101.79 329.04 93.11 323.72 102.25"/><path class="cls-1" d="M5.96,78.04V1.5c1.02,.1,102.55,10.14,161.35,10.14S327.62,1.6,328.64,1.5V78.04"/></g></svg>